<!-- Generated by IcoMoon.io -->
<svg version="1.1" xmlns="http://www.w3.org/2000/svg" width="32" height="32" viewBox="0 0 32 32">
<path fill="#4d5ae5" d="M29.333 13.333c0 0.005 0 0.011 0 0.017 0 3.676-1.493 7.004-3.905 9.411l-0 0c-2.406 2.413-5.734 3.905-9.411 3.905-0.006 0-0.012 0-0.018 0h0.001c-0.005 0-0.011 0-0.017 0-3.676 0-7.004-1.493-9.411-3.905l-0-0c-2.413-2.407-3.905-5.735-3.905-9.411 0-0.006 0-0.012 0-0.018v0.001c0-0.005 0-0.011 0-0.017 0-3.676 1.493-7.004 3.905-9.411l0-0c2.407-2.413 5.734-3.905 9.411-3.905 0.006 0 0.012 0 0.018 0h-0.001c0.005 0 0.011 0 0.017 0 3.676 0 7.004 1.493 9.411 3.905l0 0c2.413 2.406 3.905 5.734 3.905 9.411 0 0.006 0 0.012 0 0.018v-0.001z"></path>
<path fill="#f4f4fd" d="M17.777 9.771h0.973v-1.696c-0.412-0.048-0.89-0.075-1.375-0.075-0.015 0-0.031 0-0.046 0h0.002c-1.404 0-2.365 0.883-2.365 2.507v1.493h-1.549v1.896h1.549v4.771h1.899v-4.77h1.487l0.236-1.897h-1.723v-1.307c0.001-0.548 0.148-0.923 0.912-0.923z"></path>
</svg>
