<!-- Generated by IcoMoon.io -->
<svg version="1.1" xmlns="http://www.w3.org/2000/svg" width="32" height="32" viewBox="0 0 32 32">
<path fill="#4d5ae5" d="M29.333 13.333c0 0.005 0 0.011 0 0.017 0 3.676-1.493 7.004-3.905 9.411l-0 0c-2.406 2.413-5.734 3.905-9.411 3.905-0.006 0-0.012 0-0.018 0h0.001c-0.005 0-0.011 0-0.017 0-3.676 0-7.004-1.493-9.411-3.905l-0-0c-2.413-2.407-3.905-5.735-3.905-9.411 0-0.006 0-0.012 0-0.018v0.001c0-0.005 0-0.011 0-0.017 0-3.676 1.493-7.004 3.905-9.411l0-0c2.407-2.413 5.734-3.905 9.411-3.905 0.006 0 0.012 0 0.018 0h-0.001c0.005 0 0.011 0 0.017 0 3.676 0 7.004 1.493 9.411 3.905l0 0c2.413 2.406 3.905 5.734 3.905 9.411 0 0.006 0 0.012 0 0.018v-0.001z"></path>
<path fill="#f4f4fd" d="M21.323 11.136c-0.025-0.567-0.117-0.957-0.248-1.294-0.141-0.37-0.351-0.686-0.616-0.946l-0-0c-0.26-0.264-0.575-0.473-0.926-0.609l-0.018-0.006c-0.34-0.131-0.727-0.223-1.293-0.248-0.571-0.027-0.753-0.033-2.201-0.033-1.449 0-1.63 0.007-2.199 0.031-0.567 0.025-0.956 0.117-1.293 0.248-0.371 0.141-0.687 0.351-0.946 0.616l-0 0c-0.264 0.26-0.473 0.575-0.609 0.926l-0.006 0.018c-0.131 0.34-0.223 0.727-0.248 1.293-0.027 0.571-0.033 0.753-0.033 2.201s0.007 1.629 0.031 2.198c0.025 0.567 0.117 0.957 0.248 1.294 0.135 0.359 0.346 0.679 0.617 0.947 0.267 0.27 0.59 0.481 0.944 0.614 0.34 0.131 0.727 0.223 1.294 0.248 0.569 0.025 0.75 0.031 2.199 0.031s1.629-0.007 2.198-0.031c0.567-0.025 0.957-0.117 1.294-0.248 0.719-0.283 1.277-0.841 1.554-1.542l0.006-0.018c0.131-0.34 0.223-0.728 0.248-1.295 0.025-0.569 0.031-0.75 0.031-2.198s-0.002-1.63-0.027-2.199zM20.363 15.491c-0.023 0.521-0.111 0.803-0.184 0.99-0.184 0.467-0.546 0.829-1.001 1.009l-0.012 0.004c-0.187 0.073-0.471 0.16-0.989 0.183-0.563 0.025-0.731 0.031-2.155 0.031s-1.594-0.007-2.155-0.031c-0.521-0.023-0.802-0.11-0.99-0.183-0.24-0.090-0.445-0.225-0.612-0.398l-0-0c-0.172-0.168-0.308-0.373-0.394-0.601l-0.004-0.011c-0.073-0.187-0.16-0.471-0.183-0.989-0.025-0.563-0.031-0.732-0.031-2.155s0.007-1.594 0.031-2.155c0.023-0.521 0.111-0.803 0.183-0.99 0.085-0.231 0.221-0.441 0.4-0.613 0.173-0.177 0.381-0.313 0.613-0.398 0.187-0.073 0.471-0.16 0.989-0.183 0.563-0.025 0.731-0.031 2.155-0.031 1.425 0 1.593 0.007 2.155 0.031 0.521 0.023 0.802 0.111 0.99 0.183 0.231 0.085 0.441 0.221 0.612 0.398 0.177 0.173 0.313 0.381 0.398 0.613 0.073 0.187 0.161 0.471 0.184 0.989 0.025 0.563 0.031 0.731 0.031 2.155s-0.006 1.59-0.031 2.153z"></path>
<path fill="#f4f4fd" d="M16.020 10.594c-1.487 0.034-2.68 1.248-2.68 2.74s1.193 2.706 2.677 2.74l0.003 0c1.487-0.034 2.68-1.248 2.68-2.74s-1.193-2.706-2.677-2.74l-0.003-0zM16.020 15.112c-0.982 0-1.778-0.796-1.778-1.778s0.796-1.778 1.778-1.778v0c0.982 0 1.778 0.796 1.778 1.778s-0.796 1.778-1.778 1.778v0zM19.508 10.486c0 0.353-0.287 0.64-0.64 0.64s-0.64-0.287-0.64-0.64v0c0-0.353 0.287-0.64 0.64-0.64s0.64 0.287 0.64 0.64v0z"></path>
</svg>
