<!-- Generated by IcoMoon.io -->
<svg version="1.1" xmlns="http://www.w3.org/2000/svg" width="32" height="32" viewBox="0 0 32 32">
<path fill="#4d5ae5" d="M29.333 13.333c0 0.005 0 0.011 0 0.017 0 3.676-1.493 7.004-3.905 9.411l-0 0c-2.406 2.413-5.734 3.905-9.411 3.905-0.006 0-0.012 0-0.018 0h0.001c-0.005 0-0.011 0-0.017 0-3.676 0-7.004-1.493-9.411-3.905l-0-0c-2.413-2.407-3.905-5.735-3.905-9.411 0-0.006 0-0.012 0-0.018v0.001c0-0.005 0-0.011 0-0.017 0-3.676 1.493-7.004 3.905-9.411l0-0c2.407-2.413 5.734-3.905 9.411-3.905 0.006 0 0.012 0 0.018 0h-0.001c0.005 0 0.011 0 0.017 0 3.676 0 7.004 1.493 9.411 3.905l0 0c2.413 2.406 3.905 5.734 3.905 9.411 0 0.006 0 0.012 0 0.018v-0.001z"></path>
<path fill="#f4f4fd" d="M21.331 18.667h0.003v-3.913c0-1.913-0.412-3.388-2.649-3.388-1.075 0-1.797 0.591-2.092 1.15h-0.031v-0.971h-2.121v7.123h2.209v-3.527c0-0.929 0.176-1.827 1.325-1.827 1.133 0 1.15 1.060 1.15 1.887v3.467h2.207zM10.843 11.545h2.211v7.121h-2.211v-7.121zM11.947 8c-0.707 0-1.28 0.573-1.28 1.281s0.573 1.293 1.28 1.293c0.707 0 1.281-0.587 1.281-1.293s-0.575-1.281-1.282-1.281z"></path>
</svg>
