<!-- Generated by IcoMoon.io -->
<svg version="1.1" xmlns="http://www.w3.org/2000/svg" width="32" height="32" viewBox="0 0 32 32">
<path fill="#4d5ae5" d="M29.333 13.333c0 0.005 0 0.011 0 0.017 0 3.676-1.493 7.004-3.905 9.411l-0 0c-2.406 2.413-5.734 3.905-9.411 3.905-0.006 0-0.012 0-0.018 0h0.001c-0.005 0-0.011 0-0.017 0-3.676 0-7.004-1.493-9.411-3.905l-0-0c-2.413-2.407-3.905-5.735-3.905-9.411 0-0.006 0-0.012 0-0.018v0.001c0-0.005 0-0.011 0-0.017 0-3.676 1.493-7.004 3.905-9.411l0-0c2.407-2.413 5.734-3.905 9.411-3.905 0.006 0 0.012 0 0.018 0h-0.001c0.005 0 0.011 0 0.017 0 3.676 0 7.004 1.493 9.411 3.905l0 0c2.413 2.406 3.905 5.734 3.905 9.411 0 0.006 0 0.012 0 0.018v-0.001z"></path>
<path fill="#f4f4fd" d="M21.333 10.026c-0.367 0.165-0.792 0.286-1.237 0.343l-0.023 0.002c0.453-0.272 0.794-0.693 0.958-1.193l0.004-0.015c-0.399 0.241-0.864 0.425-1.359 0.525l-0.028 0.005c-0.4-0.426-0.967-0.692-1.596-0.692-1.208 0-2.187 0.979-2.187 2.187 0 0 0 0 0 0.001v-0c0 0.173 0.015 0.34 0.051 0.499-1.823-0.092-3.426-0.959-4.498-2.276l-0.009-0.011c-0.188 0.316-0.298 0.697-0.298 1.104 0 0.755 0.382 1.42 0.963 1.814l0.008 0.005c-0.364-0.010-0.703-0.109-0.999-0.275l0.011 0.006v0.024c0.001 1.055 0.746 1.935 1.738 2.146l0.014 0.003c-0.167 0.046-0.358 0.072-0.556 0.072-0.006 0-0.012-0-0.018-0h0.001c-0.010 0-0.022 0-0.034 0-0.134 0-0.265-0.014-0.392-0.040l0.012 0.002c0.291 0.875 1.091 1.499 2.040 1.523l0.003 0c-0.738 0.582-1.681 0.933-2.707 0.933-0.002 0-0.003 0-0.005 0h0c-0.179 0-0.351-0.008-0.523-0.030 0.942 0.615 2.096 0.981 3.335 0.981 0.007 0 0.014 0 0.021-0h-0.001c4.024 0 6.224-3.333 6.224-6.223 0-0.097-0.003-0.19-0.008-0.283 0.433-0.312 0.797-0.689 1.086-1.12l0.010-0.016z"></path>
</svg>
